<?xml version="1.0" ?>

<!-- Uploaded to: SVG Repo, www.svgrepo.com, Generator: SVG Repo Mixer Tools -->
<svg width="800px" height="800px" viewBox="0 0 512 512" version="1.1" xml:space="preserve" xmlns="http://www.w3.org/2000/svg" xmlns:xlink="http://www.w3.org/1999/xlink">

<style type="text/css">
	.st0{display:none;}
	.st1{fill:#FFE2D2;}
	.st2{fill:#FFDE83;}
	.st3{fill:#F57070;}
	.st4{fill:#DBDBEF;}
	.st5{fill:#BCE2FF;}
	.st6{fill:#48446D;}
	.st7{fill:#6E78FF;}
	.st8{fill:#FFBE83;}
	.st9{fill:#F5949E;}
	.st10{fill:#D0FF67;}
	.st11{fill:#C69C6D;}
	.st12{fill:#C5BDD3;}
	.st13{fill:#FFE2B8;}
	.st14{fill:#F54670;}
</style>

<g class="st0" id="Layer_1"/>

<g id="Layer_2">

<g>

<path class="st3" d="M392.43,222.08c-1.58,1.47-2.39,3.6-2.2,5.75c0.19,2.15,1.37,4.09,3.19,5.26c1.57,1.01,3.04,2.19,4.37,3.51    c10.21,10.22,10.21,26.83,0,37.04c-10.21,10.21-26.83,10.21-37.04,0c-1.28-1.28-2.4-2.65-3.34-4.08    c-1.33-2.03-3.62-3.23-6.04-3.16c-0.23,0.01-0.46,0.02-0.68,0.01c-2.15-0.03-4.2,0.88-5.57,2.53c-1.37,1.66-1.91,3.85-1.45,5.95    c0.39,1.82,0.59,3.7,0.59,5.58c0,5.27-1.52,10.26-4.43,14.56c-0.41,0.62-0.85,1.22-1.33,1.81c-4.99,6.24-12.43,9.82-20.42,9.82    c-3.33,0-6.54-0.61-9.58-1.82c-3.65-1.43-6.98-3.71-9.64-6.59c-4.51-4.86-6.98-11.17-6.98-17.79c0-1.8,0.18-3.57,0.53-5.24    c0.49-2.4-0.3-4.89-2.1-6.55c-0.19-0.18-0.37-0.36-0.56-0.55c-1.49-1.5-3.58-2.23-5.68-2.02c-2.1,0.23-3.99,1.38-5.14,3.16    c-0.61,0.93-1.27,1.83-1.98,2.66c-0.04,0.05-0.08,0.1-0.12,0.15c-0.39,0.49-0.86,1-1.43,1.57c-10.21,10.21-26.83,10.21-37.04,0    c-4.95-4.95-7.67-11.52-7.67-18.52c0-0.88,0.04-1.74,0.13-2.6c0.59-6.02,3.21-11.6,7.54-15.92c0.55-0.56,1.1-1.05,1.62-1.48    c0.02-0.02,0.05-0.05,0.08-0.07c0.75-0.64,1.57-1.25,2.42-1.82c2.01-1.34,3.18-3.61,3.12-6.02c-0.01-0.28-0.01-0.57-0.01-0.86    c0-2.11-0.96-4.12-2.6-5.44c-1.65-1.33-3.81-1.85-5.88-1.4c-1.86,0.4-3.77,0.61-5.61,0.61c-6.6,0-12.9-2.48-17.76-6.99    c-2.87-2.65-5.15-5.98-6.59-9.68c-1.2-2.99-1.81-6.2-1.81-9.53c0-1.99,0.23-3.96,0.66-5.86c1.3-5.7,4.49-10.82,9.18-14.58    c3.51-2.81,7.56-4.64,11.91-5.37c1.45-0.25,2.93-0.37,4.44-0.37c1.78,0,3.55,0.18,5.25,0.53c2.4,0.5,4.91-0.32,6.57-2.11    c0.12-0.13,0.23-0.26,0.35-0.37c1.59-1.47,2.41-3.6,2.22-5.75c-0.19-2.16-1.37-4.11-3.2-5.28c-1.57-1.01-3.04-2.19-4.36-3.51    c-4.95-4.95-7.67-11.53-7.67-18.52c0-7,2.72-13.58,7.67-18.52c4.94-4.95,11.51-7.67,18.51-7.67c3.5,0,6.89,0.68,10.03,1.98    c3.14,1.3,6.02,3.22,8.5,5.69c1.27,1.28,2.4,2.66,3.33,4.08c1.34,2.03,3.6,3.22,6.05,3.16c0.23,0,0.45-0.02,0.68-0.01    c2.12,0.04,4.2-0.88,5.57-2.53c1.37-1.65,1.9-3.85,1.45-5.95c-0.4-1.82-0.6-3.69-0.6-5.58c0-0.9,0.05-1.8,0.14-2.68    c0.62-6.2,3.4-11.9,7.99-16.27c4.88-4.67,11.28-7.23,18.03-7.23h0.03c14.44,0,26.19,11.75,26.19,26.19c0,1.8-0.18,3.57-0.52,5.25    c-0.5,2.4,0.3,4.88,2.09,6.55c0.19,0.17,0.36,0.35,0.57,0.55c1.5,1.5,3.58,2.24,5.68,2.01c2.1-0.22,3.99-1.38,5.14-3.16    c1.05-1.61,2.23-3.09,3.52-4.38c5.25-5.25,12.53-8.03,19.94-7.63c3.78,0.21,6.99-2.61,7.34-6.33c0.01-0.09,0.02-0.19,0.03-0.28    c0.01-0.08,0.01-0.16,0.01-0.24c0-0.18-0.01-0.36-0.02-0.53c0.07,0.02,0.12,0.04,0.19,0.06c3.48,1.23,6.75,2.84,9.69,4.79    c0.03,0.02,0.06,0.05,0.09,0.07c-0.07,0.06-0.15,0.12-0.22,0.19c-0.05,0.05-0.1,0.1-0.15,0.16c-0.12,0.12-0.21,0.26-0.31,0.39    c-0.14,0.17-0.29,0.33-0.41,0.52c-0.26,0.38-0.47,0.78-0.65,1.21c-0.17,0.42-0.31,0.86-0.4,1.31c-0.09,0.45-0.13,0.91-0.13,1.37    c0,0.45,0.04,0.91,0.13,1.36c0.09,0.45,0.23,0.89,0.4,1.31c0.18,0.42,0.39,0.83,0.65,1.21c0.25,0.38,0.54,0.74,0.87,1.07    c1.3,1.3,3.1,2.05,4.94,2.05c1.63,0,3.22-0.59,4.47-1.63c0.13-0.1,0.26-0.21,0.38-0.33c0.04-0.03,0.07-0.06,0.1-0.09    c0.09-0.09,0.17-0.19,0.25-0.28c0.02,0.03,0.05,0.06,0.07,0.1c1.72,2.6,3.08,5.49,4.05,8.58c0.01,0.04,0.02,0.08,0.03,0.12    c-0.13,0-0.26,0-0.39,0.01c-0.04,0-0.08,0.01-0.12,0.02c-0.17,0.02-0.34,0.05-0.5,0.08c-3.53,0.63-6.05,3.87-5.72,7.51    c0.7,7.77-2.05,15.39-7.57,20.9c-1.24,1.24-2.62,2.37-4.11,3.36c-2.01,1.34-3.19,3.61-3.12,6.02c0.01,0.27,0,0.54,0,0.86    c0,2.12,0.96,4.12,2.61,5.45c1.64,1.33,3.8,1.84,5.87,1.39c1.85-0.4,3.73-0.6,5.58-0.6c14.44,0,26.19,11.75,26.19,26.2    c0.01,6.76-2.56,13.17-7.24,18.06c-4.99,5.23-11.71,8.12-18.94,8.12c-1.78,0-3.55-0.18-5.26-0.54c-2.4-0.49-4.88,0.3-6.55,2.09    C392.69,221.81,392.56,221.95,392.43,222.08z"/>

<path class="st4" d="M296.07,314.08c-0.06,0.14-0.12,0.27-0.17,0.41c-0.06,0.13-0.11,0.25-0.17,0.38c-0.25,0.6-0.48,1.2-0.69,1.81    c-0.04,0.11-0.07,0.21-0.1,0.31c-0.19,0.57-0.37,1.14-0.52,1.72c-0.03,0.1-0.06,0.2-0.09,0.3c-0.16,0.61-0.29,1.22-0.42,1.83    c-0.03,0.17-0.06,0.34-0.09,0.5c-0.11,0.6-0.2,1.2-0.28,1.8c-0.02,0.17-0.03,0.34-0.05,0.51c-0.06,0.54-0.1,1.08-0.13,1.63    c-0.01,0.15-0.02,0.31-0.03,0.47c-0.02,0.56-0.02,1.12-0.01,1.69c0,0.2,0,0.4,0.01,0.6c0.02,0.58,0.05,1.16,0.11,1.73    c0.02,0.21,0.04,0.43,0.06,0.64c0.06,0.53,0.13,1.06,0.22,1.58c0.03,0.21,0.07,0.42,0.11,0.63c0.09,0.49,0.19,0.98,0.31,1.47    c0.04,0.2,0.09,0.4,0.14,0.6c0.01,0.04,0.02,0.08,0.03,0.13l-60.03,36.12c-3.21,1.92-4.31,6.01-2.57,9.27    c0.06,0.11,0.11,0.22,0.18,0.33c0.02,0.04,0.04,0.08,0.07,0.11c0.09,0.14,0.19,0.27,0.29,0.4l-13.18,7.74    c-0.08-0.14-0.16-0.29-0.25-0.43c-0.05-0.09-0.1-0.17-0.15-0.25c-0.04-0.06-0.08-0.11-0.12-0.17c-0.23-0.32-0.48-0.62-0.75-0.89    c-0.32-0.33-0.68-0.62-1.06-0.87c-0.38-0.26-0.79-0.47-1.21-0.65c-0.42-0.17-0.87-0.31-1.31-0.4c-0.91-0.18-1.83-0.18-2.74,0    c-0.44,0.09-0.88,0.23-1.31,0.4c-0.42,0.18-0.83,0.39-1.2,0.65c-0.39,0.25-0.75,0.54-1.07,0.87c-0.32,0.32-0.61,0.68-0.87,1.06    c-0.25,0.38-0.47,0.79-0.64,1.21c-0.18,0.42-0.31,0.86-0.4,1.31c-0.09,0.45-0.14,0.91-0.14,1.37c0,0.45,0.05,0.91,0.14,1.36    c0.09,0.45,0.22,0.89,0.4,1.31c0.05,0.11,0.11,0.21,0.16,0.32c0.07,0.15,0.13,0.3,0.22,0.45c0.08,0.14,0.16,0.29,0.25,0.43    l-12.49,7.33c-0.02-0.05-0.04-0.1-0.07-0.14c-0.06-0.1-0.12-0.2-0.19-0.29c-0.09-0.14-0.2-0.27-0.3-0.4    c-2.14-2.76-6.05-3.54-9.11-1.7l-23.54,14.16c-1.6,0.96-2.74,2.52-3.19,4.32l-6.17,24.96l-84.07-84.07l24.96-6.17    c1.8-0.45,3.36-1.59,4.32-3.19l65.98-109.66c1.99-3.31,0.92-7.62-2.39-9.61c-0.27-0.16-0.55-0.29-0.82-0.42    c-0.16-0.06-0.31-0.13-0.47-0.19c-0.16-0.06-0.33-0.08-0.49-0.13l8.86-17.12c0.14,0.09,0.28,0.19,0.42,0.28    c0.14,0.09,0.29,0.17,0.43,0.26c0.77,0.47,1.55,0.9,2.35,1.3c0.55,0.28,1.1,0.53,1.65,0.77c0.2,0.08,0.4,0.15,0.6,0.24    c0.36,0.14,0.71,0.29,1.07,0.42c0.25,0.09,0.49,0.16,0.74,0.24c0.32,0.11,0.64,0.22,0.96,0.32c0.27,0.08,0.53,0.14,0.8,0.21    c0.31,0.09,0.61,0.18,0.92,0.25c0.28,0.06,0.55,0.12,0.83,0.18c0.3,0.06,0.6,0.13,0.91,0.18c0.28,0.05,0.56,0.09,0.85,0.13    c0.29,0.05,0.59,0.09,0.89,0.13c0.29,0.03,0.57,0.06,0.86,0.09c0.3,0.02,0.6,0.05,0.89,0.07c0.29,0.02,0.58,0.03,0.87,0.04    s0.59,0.02,0.89,0.03h0.27c0.32,0,0.65-0.01,0.98-0.02h0.27c0.53-0.02,1.05-0.06,1.58-0.11c0.12-0.01,0.24-0.02,0.36-0.04    c0.4-0.04,0.8-0.08,1.2-0.14c0.17-0.03,0.33-0.05,0.5-0.08c0.37-0.06,0.75-0.12,1.12-0.2c0.15-0.02,0.3-0.05,0.45-0.08    c1.02-0.22,2.04-0.48,3.04-0.8c0.15-0.05,0.29-0.1,0.44-0.15c0.36-0.12,0.72-0.25,1.08-0.38c0.16-0.06,0.31-0.12,0.47-0.18    c0.38-0.15,0.75-0.3,1.12-0.47c0.09-0.03,0.18-0.07,0.27-0.11c0.06,0.1,0.14,0.2,0.2,0.3c0.26,0.38,0.52,0.76,0.79,1.13    c0.19,0.27,0.38,0.54,0.58,0.8c0.29,0.38,0.59,0.75,0.89,1.12c0.2,0.24,0.39,0.49,0.59,0.73c0.34,0.39,0.69,0.78,1.05,1.16    c0.18,0.2,0.35,0.4,0.53,0.59c0.55,0.56,1.1,1.12,1.68,1.65c5.37,4.98,11.89,8.34,18.92,9.83c-4.21,6.46-6.46,13.99-6.46,21.88    c0,10.73,4.18,20.83,11.77,28.42c0.85,0.85,1.74,1.66,2.64,2.42c9.99,8.35,23.1,11.1,35.15,8.23c4.38-1.04,8.61-2.82,12.51-5.35    c1.11,5.27,3.29,10.26,6.4,14.69c1.04,1.47,2.18,2.89,3.42,4.23c0.53,0.57,1.09,1.13,1.65,1.68c0.19,0.18,0.39,0.35,0.58,0.53    c0.39,0.36,0.78,0.71,1.18,1.06c0.23,0.19,0.47,0.37,0.7,0.56c0.38,0.32,0.76,0.63,1.16,0.92c0.24,0.19,0.49,0.36,0.74,0.54    c0.4,0.29,0.8,0.57,1.2,0.84C295.89,313.96,295.97,314.02,296.07,314.08z"/>

<path class="st2" d="M285.76,83.47c-0.44,0.59-0.86,1.19-1.26,1.79c-0.03,0.04-0.05,0.08-0.07,0.12    c-0.47,0.71-0.91,1.44-1.33,2.17c-0.12,0.22-0.24,0.45-0.37,0.67c-0.34,0.63-0.66,1.26-0.97,1.9c-0.08,0.18-0.17,0.35-0.25,0.53    c-0.37,0.8-0.71,1.61-1.02,2.44c-0.08,0.19-0.14,0.39-0.21,0.58c-0.24,0.66-0.46,1.33-0.67,2.01c-0.07,0.24-0.14,0.48-0.21,0.72    c-0.24,0.86-0.47,1.72-0.65,2.6c-6.45-4.2-13.99-6.46-21.87-6.46c-0.01,0-0.01,0-0.01,0c-10.73,0-20.82,4.18-28.41,11.77    c-7.59,7.59-11.77,17.68-11.77,28.42c0,7.89,2.26,15.44,6.47,21.89c-6.1,1.31-11.86,4.02-16.74,7.94    c-9.58,7.66-15.08,19.09-15.08,31.36c0,0.72,0.03,1.43,0.06,2.15c0.01,0.22,0.03,0.44,0.05,0.67c0.03,0.49,0.07,0.98,0.13,1.47    c0.02,0.25,0.05,0.5,0.08,0.74c0.06,0.49,0.13,0.97,0.21,1.44c0.04,0.23,0.07,0.45,0.11,0.68c0.1,0.57,0.22,1.14,0.35,1.71    c0.02,0.09,0.03,0.18,0.05,0.27c-0.05,0.03-0.11,0.06-0.17,0.09c-0.52,0.23-1.06,0.45-1.6,0.63c-0.05,0.02-0.1,0.03-0.15,0.05    c-0.51,0.17-1.03,0.31-1.56,0.43c-0.11,0.02-0.22,0.05-0.33,0.07c-0.56,0.12-1.13,0.21-1.71,0.27c-0.07,0.01-0.14,0.01-0.21,0.02    c-0.55,0.05-1.11,0.07-1.66,0.07c-0.06,0-0.13,0.01-0.19,0c-0.6,0-1.2-0.04-1.79-0.12c-0.08,0-0.15-0.02-0.22-0.02    c-1.2-0.16-2.39-0.45-3.56-0.86c-0.09-0.03-0.18-0.07-0.27-0.1c-0.58-0.21-1.15-0.45-1.71-0.73c-1.66-0.82-3.18-1.91-4.52-3.26    c-6.8-6.79-6.8-17.84,0-24.63c0.83-0.84,1.75-1.59,2.72-2.23c2.04-1.34,3.23-3.66,3.15-6.1c-0.01-0.1-0.01-0.2-0.01-0.25    c0.08-2.16-0.84-4.24-2.5-5.63c-1.27-1.07-2.87-1.63-4.5-1.63c-0.49,0-0.98,0.05-1.47,0.15c-1.23,0.27-2.49,0.4-3.73,0.4    c-9.59,0-17.41-7.81-17.41-17.42c0-9.6,7.81-17.42,17.38-17.42c1.25,0.01,2.44,0.13,3.54,0.35c2.31,0.48,4.7-0.24,6.36-1.91    l0.28-0.29c1.62-1.47,2.47-3.6,2.29-5.77c-0.18-2.18-1.36-4.15-3.2-5.32c-1.05-0.68-2.03-1.46-2.9-2.34    c-6.8-6.79-6.8-17.84,0-24.64c6.78-6.79,17.83-6.78,24.63,0.01c0.83,0.83,1.59,1.76,2.26,2.76c1.35,2.02,3.66,3.17,6.09,3.1h0.5    c2.12,0,4.13-0.97,5.46-2.62c1.33-1.66,1.83-3.83,1.37-5.9c-0.27-1.19-0.4-2.43-0.4-3.67c0.01-9.6,7.82-17.42,17.41-17.42    c9.61,0.01,17.43,7.82,17.43,17.46c0,1.13-0.11,2.3-0.35,3.47c-0.5,2.43,0.33,4.94,2.17,6.6c0.09,0.09,0.18,0.18,0.3,0.29    c1.5,1.5,3.6,2.24,5.7,2.01c2.11-0.23,4-1.41,5.14-3.19c0.67-1.04,1.45-2.02,2.33-2.9c3.29-3.29,7.66-5.09,12.3-5.09    c0.01,0,0.01,0,0.01,0C279,79.82,282.72,81.1,285.76,83.47z"/>

<path class="st7" d="M450.83,281.94c0,9.6-7.82,17.41-17.38,17.42c-1.21-0.01-2.41-0.13-3.54-0.36c-2.3-0.47-4.69,0.25-6.35,1.91    l-0.35,0.36c-1.57,1.45-2.39,3.54-2.23,5.68c0.17,2.17,1.34,4.13,3.16,5.32c1.08,0.7,2.07,1.5,2.94,2.37    c3.29,3.29,5.1,7.67,5.1,12.32c0.01,4.65-1.8,9.02-5.09,12.31c-3.29,3.29-7.67,5.1-12.32,5.1c-4.66,0-9.03-1.81-12.32-5.1    c-0.84-0.83-1.58-1.75-2.22-2.72c-1.4-2.12-3.85-3.31-6.38-3.14c-2.16-0.09-4.23,0.85-5.61,2.51c-1.39,1.65-1.93,3.85-1.47,5.96    c0.26,1.23,0.4,2.49,0.4,3.73c0,9.6-7.82,17.42-17.42,17.42c-9.61-0.01-17.42-7.83-17.42-17.42c0-1.2,0.12-2.38,0.35-3.51    c0.49-2.42-0.32-4.92-2.15-6.58c-0.11-0.1-0.21-0.21-0.32-0.31c-1.32-1.32-3.1-2.05-4.95-2.05c-0.25,0-0.5,0.01-0.75,0.04    c-2.11,0.23-4,1.4-5.15,3.19c-0.66,1.04-1.44,2.01-2.32,2.88c-3.28,3.29-7.66,5.11-12.31,5.11c-4.66,0-9.03-1.82-12.32-5.11    c-1.35-1.34-2.44-2.86-3.28-4.56c-0.26-0.54-0.49-1.08-0.7-1.64c-0.05-0.12-0.09-0.25-0.14-0.38c-0.19-0.54-0.36-1.09-0.49-1.65    c-0.02-0.07-0.03-0.14-0.05-0.21c-0.12-0.51-0.21-1.03-0.28-1.54c-0.01-0.12-0.03-0.24-0.04-0.37c-0.07-0.56-0.11-1.12-0.12-1.68    c0-0.11,0.01-0.22,0.01-0.33c0-0.5,0.02-1,0.07-1.5c0-0.1,0.01-0.2,0.02-0.3c0.06-0.56,0.15-1.12,0.26-1.67    c0.03-0.12,0.06-0.24,0.09-0.37c0.11-0.51,0.25-1.02,0.41-1.52c0.02-0.05,0.04-0.11,0.06-0.17c0.18-0.54,0.4-1.07,0.63-1.59    c0.03-0.06,0.06-0.12,0.08-0.17c0.16,0.03,0.32,0.06,0.47,0.09c0.5,0.11,0.99,0.21,1.49,0.3c0.25,0.05,0.5,0.09,0.75,0.13    c0.46,0.07,0.91,0.14,1.37,0.2c0.26,0.03,0.52,0.06,0.78,0.09c0.48,0.05,0.97,0.09,1.46,0.12c0.22,0.02,0.45,0.04,0.67,0.05    c0.72,0.03,1.43,0.06,2.15,0.06c12.27,0,23.7-5.5,31.35-15.07c3.44-4.28,5.95-9.23,7.39-14.49c0.21-0.75,0.39-1.51,0.56-2.27    c15.57,10.12,36.67,8.36,50.31-5.29c3.84-3.83,6.74-8.26,8.69-12.98c1.09-2.63,1.89-5.35,2.39-8.11c0.11-0.55,0.2-1.1,0.27-1.66    c1.34-9.44-0.68-19.27-6.05-27.54H413c0.87-0.18,1.73-0.41,2.58-0.65c0.25-0.07,0.5-0.14,0.75-0.22c0.66-0.2,1.32-0.41,1.97-0.65    c0.2-0.07,0.41-0.14,0.62-0.22c0.81-0.31,1.62-0.65,2.41-1.01c0.2-0.09,0.39-0.19,0.58-0.28c0.62-0.3,1.23-0.61,1.84-0.94    c0.24-0.13,0.48-0.26,0.72-0.39c0.69-0.4,1.37-0.81,2.03-1.25c0.09-0.05,0.17-0.1,0.25-0.15c0.6-0.4,1.2-0.82,1.78-1.25    c2.37,3.04,3.65,6.76,3.65,10.68c0.01,4.65-1.8,9.02-5.09,12.31c-0.84,0.84-1.75,1.58-2.72,2.22c-1.97,1.3-3.16,3.49-3.16,5.85    c0,0.14,0.01,0.28,0.01,0.43v0.04c-0.1,2.13,0.79,4.19,2.4,5.6c1.67,1.44,3.91,2.02,6.07,1.55c1.23-0.26,2.48-0.4,3.72-0.4    C443.01,264.52,450.82,272.34,450.83,281.94z"/>

<path class="st6" d="M192.08,412.67l-21.06,12.66l-8.44,34.18c-0.61,2.45-2.49,4.39-4.92,5.06c-0.62,0.18-1.25,0.26-1.88,0.26    c-1.83,0-3.62-0.72-4.95-2.05L49.22,361.17c-1.79-1.79-2.47-4.4-1.79-6.83c0.67-2.43,2.61-4.31,5.06-4.92l34.18-8.45l64.48-107.17    c1.66-2.74,4.88-3.92,7.83-3.13c0.16,0.05,0.33,0.07,0.49,0.13c0.16,0.06,0.31,0.13,0.47,0.19c0.27,0.13,0.55,0.26,0.82,0.42    c3.31,1.99,4.38,6.3,2.39,9.61L97.17,350.68c-0.96,1.6-2.52,2.74-4.32,3.19l-24.96,6.17l84.07,84.07l6.17-24.96    c0.45-1.8,1.59-3.36,3.19-4.32l23.54-14.16c3.06-1.84,6.97-1.06,9.11,1.7c0.1,0.13,0.21,0.26,0.3,0.4    c0.07,0.09,0.13,0.19,0.19,0.29c0.03,0.04,0.05,0.09,0.07,0.14C196.42,406.49,195.34,410.7,192.08,412.67z"/>

<path class="st6" d="M219.85,392c0,0.45-0.05,0.91-0.14,1.36c-0.09,0.45-0.22,0.89-0.4,1.31c-0.17,0.43-0.39,0.83-0.64,1.21    c-0.25,0.39-0.55,0.74-0.87,1.06c-0.32,0.33-0.68,0.62-1.06,0.87c-0.38,0.26-0.79,0.47-1.21,0.65c-0.43,0.17-0.87,0.31-1.31,0.4    c-0.45,0.09-0.91,0.13-1.37,0.13c-0.46,0-0.92-0.04-1.37-0.13c-0.44-0.09-0.88-0.23-1.31-0.4c-0.42-0.18-0.83-0.39-1.2-0.65    c-0.39-0.25-0.75-0.54-1.07-0.87c-0.32-0.32-0.61-0.67-0.87-1.06l-0.01-0.01c-0.09-0.14-0.17-0.29-0.25-0.43    c-0.09-0.15-0.15-0.3-0.22-0.45c-0.05-0.11-0.11-0.21-0.16-0.32c-0.18-0.42-0.31-0.86-0.4-1.31c-0.09-0.45-0.14-0.91-0.14-1.36    c0-0.46,0.05-0.92,0.14-1.37c0.09-0.45,0.22-0.89,0.4-1.31c0.17-0.42,0.39-0.83,0.64-1.21c0.26-0.38,0.55-0.74,0.87-1.06    c0.32-0.33,0.68-0.62,1.07-0.87c0.37-0.26,0.78-0.47,1.2-0.65c0.43-0.17,0.87-0.31,1.31-0.4c0.91-0.18,1.83-0.18,2.74,0    c0.44,0.09,0.89,0.23,1.31,0.4c0.42,0.18,0.83,0.39,1.21,0.65c0.38,0.25,0.74,0.54,1.06,0.87c0.27,0.27,0.52,0.57,0.75,0.89    c0.04,0.06,0.08,0.11,0.12,0.17c0.05,0.08,0.1,0.16,0.15,0.25c0.09,0.14,0.17,0.29,0.25,0.43c0.09,0.18,0.17,0.35,0.24,0.53    c0.18,0.42,0.31,0.86,0.4,1.31C219.8,391.08,219.85,391.54,219.85,392z"/>

<path class="st6" d="M409.74,109.27c0,0.45-0.05,0.91-0.14,1.36c-0.09,0.45-0.23,0.89-0.4,1.31c-0.18,0.42-0.39,0.83-0.64,1.21    c-0.19,0.28-0.4,0.54-0.63,0.79c-0.08,0.09-0.16,0.19-0.25,0.28c-0.03,0.03-0.06,0.06-0.1,0.09c-0.12,0.12-0.25,0.23-0.38,0.33    c-1.25,1.04-2.84,1.63-4.47,1.63c-1.84,0-3.64-0.75-4.94-2.05c-0.33-0.33-0.62-0.69-0.87-1.07c-0.26-0.38-0.47-0.79-0.65-1.21    c-0.17-0.42-0.31-0.86-0.4-1.31c-0.09-0.45-0.13-0.91-0.13-1.36c0-0.46,0.04-0.92,0.13-1.37c0.09-0.45,0.23-0.89,0.4-1.31    c0.18-0.43,0.39-0.83,0.65-1.21c0.12-0.19,0.27-0.35,0.41-0.52c0.1-0.13,0.19-0.27,0.31-0.39c0.05-0.06,0.1-0.11,0.15-0.16    c0.07-0.07,0.15-0.13,0.22-0.19c1.61-1.48,3.92-2.16,6.09-1.72c0.45,0.09,0.89,0.23,1.31,0.4c0.43,0.18,0.83,0.39,1.21,0.64    c0.38,0.26,0.74,0.55,1.06,0.87c0.33,0.33,0.62,0.68,0.88,1.07c0.25,0.38,0.46,0.78,0.64,1.21c0.17,0.42,0.31,0.86,0.4,1.31    C409.69,108.35,409.74,108.81,409.74,109.27z"/>

<path class="st6" d="M464.83,281.94c-0.01-14.19-9.47-26.21-22.4-30.1c2.46-4.53,3.76-9.63,3.75-14.93    c0-7.79-2.82-15.15-7.98-20.91c4.3-6.51,6.61-14.13,6.6-22.07c0-19.29-13.66-35.45-31.81-39.31c4.86-7.49,7.12-16.44,6.3-25.53    c-0.34-3.72-3.52-6.48-7.21-6.35c-0.13,0-0.26,0-0.39,0.01c-0.04,0-0.08,0.01-0.12,0.02c-0.17,0.02-0.34,0.05-0.5,0.08    c-3.53,0.63-6.05,3.87-5.72,7.51c0.7,7.77-2.05,15.39-7.57,20.9c-1.24,1.24-2.62,2.37-4.11,3.36c-2.01,1.34-3.19,3.61-3.12,6.02    c0.01,0.27,0,0.54,0,0.86c0,2.12,0.96,4.12,2.61,5.45c1.64,1.33,3.8,1.84,5.87,1.39c1.85-0.4,3.73-0.6,5.58-0.6    c14.44,0,26.19,11.75,26.19,26.2c0.01,6.76-2.56,13.17-7.24,18.06c-4.99,5.23-11.71,8.12-18.94,8.12c-1.78,0-3.55-0.18-5.26-0.54    c-2.4-0.49-4.88,0.3-6.55,2.09c-0.12,0.14-0.25,0.28-0.38,0.41c-1.58,1.47-2.39,3.6-2.2,5.75c0.19,2.15,1.37,4.09,3.19,5.26    c1.57,1.01,3.04,2.19,4.37,3.51c10.21,10.22,10.21,26.83,0,37.04c-10.21,10.21-26.83,10.21-37.04,0c-1.28-1.28-2.4-2.65-3.34-4.08    c-1.33-2.03-3.62-3.23-6.04-3.16c-0.23,0.01-0.46,0.02-0.68,0.01c-2.15-0.03-4.2,0.88-5.57,2.53c-1.37,1.66-1.91,3.85-1.45,5.95    c0.39,1.82,0.59,3.7,0.59,5.58c0,5.27-1.52,10.26-4.43,14.56c-0.41,0.62-0.85,1.22-1.33,1.81c-4.99,6.24-12.43,9.82-20.42,9.82    c-3.33,0-6.54-0.61-9.58-1.82c-3.65-1.43-6.98-3.71-9.64-6.59c-4.51-4.86-6.98-11.17-6.98-17.79c0-1.8,0.18-3.57,0.53-5.24    c0.49-2.4-0.3-4.89-2.1-6.55c-0.19-0.18-0.37-0.36-0.56-0.55c-1.49-1.5-3.58-2.23-5.68-2.02c-2.1,0.23-3.99,1.38-5.14,3.16    c-0.61,0.93-1.27,1.83-1.98,2.66c-0.04,0.05-0.08,0.1-0.12,0.15c-0.39,0.49-0.86,1-1.43,1.57c-10.21,10.21-26.83,10.21-37.04,0    c-4.95-4.95-7.67-11.52-7.67-18.52c0-0.88,0.04-1.74,0.13-2.6c0.59-6.02,3.21-11.6,7.54-15.92c0.55-0.56,1.1-1.05,1.62-1.48    c0.02-0.02,0.05-0.05,0.08-0.07c0.75-0.64,1.57-1.25,2.42-1.82c2.01-1.34,3.18-3.61,3.12-6.02c-0.01-0.28-0.01-0.57-0.01-0.86    c0-2.11-0.96-4.12-2.6-5.44c-1.65-1.33-3.81-1.85-5.88-1.4c-1.86,0.4-3.77,0.61-5.61,0.61c-6.6,0-12.9-2.48-17.76-6.99    c-2.87-2.65-5.15-5.98-6.59-9.68c-1.2-2.99-1.81-6.2-1.81-9.53c0-1.99,0.23-3.96,0.66-5.86c1.3-5.7,4.49-10.82,9.18-14.58    c3.51-2.81,7.56-4.64,11.91-5.37c1.45-0.25,2.93-0.37,4.44-0.37c1.78,0,3.55,0.18,5.25,0.53c2.4,0.5,4.91-0.32,6.57-2.11    c0.12-0.13,0.23-0.26,0.35-0.37c1.59-1.47,2.41-3.6,2.22-5.75c-0.19-2.16-1.37-4.11-3.2-5.28c-1.57-1.01-3.04-2.19-4.36-3.51    c-4.95-4.95-7.67-11.53-7.67-18.52c0-7,2.72-13.58,7.67-18.52c4.94-4.95,11.51-7.67,18.51-7.67c3.5,0,6.89,0.68,10.03,1.98    c3.14,1.3,6.02,3.22,8.5,5.69c1.27,1.28,2.4,2.66,3.33,4.08c1.34,2.03,3.6,3.22,6.05,3.16c0.23,0,0.45-0.02,0.68-0.01    c2.12,0.04,4.2-0.88,5.57-2.53c1.37-1.65,1.9-3.85,1.45-5.95c-0.4-1.82-0.6-3.69-0.6-5.58c0-0.9,0.05-1.8,0.14-2.68    c0.62-6.2,3.4-11.9,7.99-16.27c4.88-4.67,11.28-7.23,18.03-7.23h0.03c14.44,0,26.19,11.75,26.19,26.19c0,1.8-0.18,3.57-0.52,5.25    c-0.5,2.4,0.3,4.88,2.09,6.55c0.19,0.17,0.36,0.35,0.57,0.55c1.5,1.5,3.58,2.24,5.68,2.01c2.1-0.22,3.99-1.38,5.14-3.16    c1.05-1.61,2.23-3.09,3.52-4.38c5.25-5.25,12.53-8.03,19.94-7.63c3.78,0.21,6.99-2.61,7.34-6.33c0.01-0.09,0.02-0.19,0.03-0.28    c0.01-0.08,0.01-0.16,0.01-0.24c0-0.18-0.01-0.36-0.02-0.53c-0.19-3.51-3-6.4-6.61-6.6c-8.55-0.46-16.97,1.84-24.05,6.42    c-3.85-18.16-20.02-31.82-39.3-31.82h-0.05c-7.93,0-15.55,2.32-22.05,6.61c-10.02-8.95-24.43-10.37-35.82-4.23    c-3.88-12.94-15.91-22.4-30.1-22.41c-7.1,0-13.65,2.37-18.91,6.35c-5.27,3.98-9.25,9.58-11.19,16.06    c-11.9-6.41-27.1-4.6-37.13,5.43c-10.04,10.04-11.85,25.24-5.44,37.14c-12.95,3.88-22.41,15.91-22.41,30.11    c0,14.19,9.47,26.21,22.41,30.1c-6.41,11.9-4.6,27.1,5.44,37.13c1.54,1.54,3.22,2.9,5.01,4.06c0.14,0.09,0.28,0.19,0.42,0.28    c0.14,0.09,0.29,0.17,0.43,0.26c0.77,0.47,1.55,0.9,2.35,1.3c0.55,0.28,1.1,0.53,1.65,0.77c0.2,0.08,0.4,0.15,0.6,0.24    c0.36,0.14,0.71,0.29,1.07,0.42c0.25,0.09,0.49,0.16,0.74,0.24c0.32,0.11,0.64,0.22,0.96,0.32c0.27,0.08,0.53,0.14,0.8,0.21    c0.31,0.09,0.61,0.18,0.92,0.25c0.28,0.06,0.55,0.12,0.83,0.18c0.3,0.06,0.6,0.13,0.91,0.18c0.28,0.05,0.56,0.09,0.85,0.13    c0.29,0.05,0.59,0.09,0.89,0.13c0.29,0.03,0.57,0.06,0.86,0.09c0.3,0.02,0.6,0.05,0.89,0.07c0.29,0.02,0.58,0.03,0.87,0.04    s0.59,0.02,0.89,0.03h0.27c0.32,0,0.65-0.01,0.98-0.02h0.27c0.53-0.02,1.05-0.06,1.58-0.11c0.12-0.01,0.24-0.02,0.36-0.04    c0.4-0.04,0.8-0.08,1.2-0.14c0.17-0.03,0.33-0.05,0.5-0.08c0.37-0.06,0.75-0.12,1.12-0.2c0.15-0.02,0.3-0.05,0.45-0.08    c1.02-0.22,2.04-0.48,3.04-0.8c0.15-0.05,0.29-0.1,0.44-0.15c0.36-0.12,0.72-0.25,1.08-0.38c0.16-0.06,0.31-0.12,0.47-0.18    c0.38-0.15,0.75-0.3,1.12-0.47c0.09-0.03,0.18-0.07,0.27-0.11c0.06,0.1,0.14,0.2,0.2,0.3c0.26,0.38,0.52,0.76,0.79,1.13    c0.19,0.27,0.38,0.54,0.58,0.8c0.29,0.38,0.59,0.75,0.89,1.12c0.2,0.24,0.39,0.49,0.59,0.73c0.34,0.39,0.69,0.78,1.05,1.16    c0.18,0.2,0.35,0.4,0.53,0.59c0.55,0.56,1.1,1.12,1.68,1.65c5.37,4.98,11.89,8.34,18.92,9.83c-4.21,6.46-6.46,13.99-6.46,21.88    c0,10.73,4.18,20.83,11.77,28.42c0.85,0.85,1.74,1.66,2.64,2.42c9.99,8.35,23.1,11.1,35.15,8.23c4.38-1.04,8.61-2.82,12.51-5.35    c1.11,5.27,3.29,10.26,6.4,14.69c1.04,1.47,2.18,2.89,3.42,4.23c0.53,0.57,1.09,1.13,1.65,1.68c0.19,0.18,0.39,0.35,0.58,0.53    c0.39,0.36,0.78,0.71,1.18,1.06c0.23,0.19,0.47,0.37,0.7,0.56c0.38,0.32,0.76,0.63,1.16,0.92c0.24,0.19,0.49,0.36,0.74,0.54    c0.4,0.29,0.8,0.57,1.2,0.84c0.1,0.07,0.18,0.13,0.28,0.19c-0.06,0.14-0.12,0.27-0.17,0.41c-0.06,0.13-0.11,0.25-0.17,0.38    c-0.25,0.6-0.48,1.2-0.69,1.81c-0.04,0.11-0.07,0.21-0.1,0.31c-0.19,0.57-0.37,1.14-0.52,1.72c-0.03,0.1-0.06,0.2-0.09,0.3    c-0.16,0.61-0.29,1.22-0.42,1.83c-0.03,0.17-0.06,0.34-0.09,0.5c-0.11,0.6-0.2,1.2-0.28,1.8c-0.02,0.17-0.03,0.34-0.05,0.51    c-0.06,0.54-0.1,1.08-0.13,1.63c-0.01,0.15-0.02,0.31-0.03,0.47c-0.02,0.56-0.02,1.12-0.01,1.69c0,0.2,0,0.4,0.01,0.6    c0.02,0.58,0.05,1.16,0.11,1.73c0.02,0.21,0.04,0.43,0.06,0.64c0.06,0.53,0.13,1.06,0.22,1.58c0.03,0.21,0.07,0.42,0.11,0.63    c0.09,0.49,0.19,0.98,0.31,1.47c0.04,0.2,0.09,0.4,0.14,0.6c0.01,0.04,0.02,0.08,0.03,0.13l-60.03,36.12    c-3.21,1.92-4.31,6.01-2.57,9.27c0.06,0.11,0.11,0.22,0.18,0.33c0.02,0.04,0.04,0.08,0.07,0.11c0.09,0.14,0.19,0.27,0.29,0.4    c1.35,1.86,3.47,2.88,5.64,2.88c1.23,0,2.48-0.32,3.6-1l59.27-35.66c0.55,0.66,1.13,1.29,1.75,1.9    c5.93,5.94,13.82,9.21,22.22,9.21c5.29,0,10.39-1.31,14.92-3.76c3.88,12.94,15.9,22.39,30.1,22.41c14.19,0,26.21-9.46,30.1-22.41    c4.53,2.45,9.62,3.75,14.92,3.75c4.19,0,8.27-0.81,12.03-2.37s7.22-3.86,10.19-6.83c5.93-5.93,9.2-13.82,9.19-22.21    c0-5.3-1.3-10.39-3.75-14.92C455.37,308.15,464.83,296.12,464.83,281.94z M191.34,193.92c0,0.72,0.03,1.43,0.06,2.15    c0.01,0.22,0.03,0.44,0.05,0.67c0.03,0.49,0.07,0.98,0.13,1.47c0.02,0.25,0.05,0.5,0.08,0.74c0.06,0.49,0.13,0.97,0.21,1.44    c0.04,0.23,0.07,0.45,0.11,0.68c0.1,0.57,0.22,1.14,0.35,1.71c0.02,0.09,0.03,0.18,0.05,0.27c-0.05,0.03-0.11,0.06-0.17,0.09    c-0.52,0.23-1.06,0.45-1.6,0.63c-0.05,0.02-0.1,0.03-0.15,0.05c-0.51,0.17-1.03,0.31-1.56,0.43c-0.11,0.02-0.22,0.05-0.33,0.07    c-0.56,0.12-1.13,0.21-1.71,0.27c-0.07,0.01-0.14,0.01-0.21,0.02c-0.55,0.05-1.11,0.07-1.66,0.07c-0.06,0-0.13,0.01-0.19,0    c-0.6,0-1.2-0.04-1.79-0.12c-0.08,0-0.15-0.02-0.22-0.02c-1.2-0.16-2.39-0.45-3.56-0.86c-0.09-0.03-0.18-0.07-0.27-0.1    c-0.58-0.21-1.15-0.45-1.71-0.73c-1.66-0.82-3.18-1.91-4.52-3.26c-6.8-6.79-6.8-17.84,0-24.63c0.83-0.84,1.75-1.59,2.72-2.23    c2.04-1.34,3.23-3.66,3.15-6.1c-0.01-0.1-0.01-0.2-0.01-0.25c0.08-2.16-0.84-4.24-2.5-5.63c-1.27-1.07-2.87-1.63-4.5-1.63    c-0.49,0-0.98,0.05-1.47,0.15c-1.23,0.27-2.49,0.4-3.73,0.4c-9.59,0-17.41-7.81-17.41-17.42c0-9.6,7.81-17.42,17.38-17.42    c1.25,0.01,2.44,0.13,3.54,0.35c2.31,0.48,4.7-0.24,6.36-1.91l0.28-0.29c1.62-1.47,2.47-3.6,2.29-5.77    c-0.18-2.18-1.36-4.15-3.2-5.32c-1.05-0.68-2.03-1.46-2.9-2.34c-6.8-6.79-6.8-17.84,0-24.64c6.78-6.79,17.83-6.78,24.63,0.01    c0.83,0.83,1.59,1.76,2.26,2.76c1.35,2.02,3.66,3.17,6.09,3.1h0.5c2.12,0,4.13-0.97,5.46-2.62c1.33-1.66,1.83-3.83,1.37-5.9    c-0.27-1.19-0.4-2.43-0.4-3.67c0.01-9.6,7.82-17.42,17.41-17.42c9.61,0.01,17.43,7.82,17.43,17.46c0,1.13-0.11,2.3-0.35,3.47    c-0.5,2.43,0.33,4.94,2.17,6.6c0.09,0.09,0.18,0.18,0.3,0.29c1.5,1.5,3.6,2.24,5.7,2.01c2.11-0.23,4-1.41,5.14-3.19    c0.67-1.04,1.45-2.02,2.33-2.9c3.29-3.29,7.66-5.09,12.3-5.09c0.01,0,0.01,0,0.01,0c3.92,0,7.64,1.28,10.68,3.65    c-0.44,0.59-0.86,1.19-1.26,1.79c-0.03,0.04-0.05,0.08-0.07,0.12c-0.47,0.71-0.91,1.44-1.33,2.17c-0.12,0.22-0.24,0.45-0.37,0.67    c-0.34,0.63-0.66,1.26-0.97,1.9c-0.08,0.18-0.17,0.35-0.25,0.53c-0.37,0.8-0.71,1.61-1.02,2.44c-0.08,0.19-0.14,0.39-0.21,0.58    c-0.24,0.66-0.46,1.33-0.67,2.01c-0.07,0.24-0.14,0.48-0.21,0.72c-0.24,0.86-0.47,1.72-0.65,2.6c-6.45-4.2-13.99-6.46-21.87-6.46    c-0.01,0-0.01,0-0.01,0c-10.73,0-20.82,4.18-28.41,11.77c-7.59,7.59-11.77,17.68-11.77,28.42c0,7.89,2.26,15.44,6.47,21.89    c-6.1,1.31-11.86,4.02-16.74,7.94C196.84,170.22,191.34,181.65,191.34,193.92z M433.45,299.36c-1.21-0.01-2.41-0.13-3.54-0.36    c-2.3-0.47-4.69,0.25-6.35,1.91l-0.35,0.36c-1.57,1.45-2.39,3.54-2.23,5.68c0.17,2.17,1.34,4.13,3.16,5.32    c1.08,0.7,2.07,1.5,2.94,2.37c3.29,3.29,5.1,7.67,5.1,12.32c0.01,4.65-1.8,9.02-5.09,12.31c-3.29,3.29-7.67,5.1-12.32,5.1    c-4.66,0-9.03-1.81-12.32-5.1c-0.84-0.83-1.58-1.75-2.22-2.72c-1.4-2.12-3.85-3.31-6.38-3.14c-2.16-0.09-4.23,0.85-5.61,2.51    c-1.39,1.65-1.93,3.85-1.47,5.96c0.26,1.23,0.4,2.49,0.4,3.73c0,9.6-7.82,17.42-17.42,17.42c-9.61-0.01-17.42-7.83-17.42-17.42    c0-1.2,0.12-2.38,0.35-3.51c0.49-2.42-0.32-4.92-2.15-6.58c-0.11-0.1-0.21-0.21-0.32-0.31c-1.32-1.32-3.1-2.05-4.95-2.05    c-0.25,0-0.5,0.01-0.75,0.04c-2.11,0.23-4,1.4-5.15,3.19c-0.66,1.04-1.44,2.01-2.32,2.88c-3.28,3.29-7.66,5.11-12.31,5.11    c-4.66,0-9.03-1.82-12.32-5.11c-1.35-1.34-2.44-2.86-3.28-4.56c-0.26-0.54-0.49-1.08-0.7-1.64c-0.05-0.12-0.09-0.25-0.14-0.38    c-0.19-0.54-0.36-1.09-0.49-1.65c-0.02-0.07-0.03-0.14-0.05-0.21c-0.12-0.51-0.21-1.03-0.28-1.54c-0.01-0.12-0.03-0.24-0.04-0.37    c-0.07-0.56-0.11-1.12-0.12-1.68c0-0.11,0.01-0.22,0.01-0.33c0-0.5,0.02-1,0.07-1.5c0-0.1,0.01-0.2,0.02-0.3    c0.06-0.56,0.15-1.12,0.26-1.67c0.03-0.12,0.06-0.24,0.09-0.37c0.11-0.51,0.25-1.02,0.41-1.52c0.02-0.05,0.04-0.11,0.06-0.17    c0.18-0.54,0.4-1.07,0.63-1.59c0.03-0.06,0.06-0.12,0.08-0.17c0.16,0.03,0.32,0.06,0.47,0.09c0.5,0.11,0.99,0.21,1.49,0.3    c0.25,0.05,0.5,0.09,0.75,0.13c0.46,0.07,0.91,0.14,1.37,0.2c0.26,0.03,0.52,0.06,0.78,0.09c0.48,0.05,0.97,0.09,1.46,0.12    c0.22,0.02,0.45,0.04,0.67,0.05c0.72,0.03,1.43,0.06,2.15,0.06c12.27,0,23.7-5.5,31.35-15.07c3.44-4.28,5.95-9.23,7.39-14.49    c0.21-0.75,0.39-1.51,0.56-2.27c15.57,10.12,36.67,8.36,50.31-5.29c3.84-3.83,6.74-8.26,8.69-12.98c1.09-2.63,1.89-5.35,2.39-8.11    c0.11-0.55,0.2-1.1,0.27-1.66c1.34-9.44-0.68-19.27-6.05-27.54H413c0.87-0.18,1.73-0.41,2.58-0.65c0.25-0.07,0.5-0.14,0.75-0.22    c0.66-0.2,1.32-0.41,1.97-0.65c0.2-0.07,0.41-0.14,0.62-0.22c0.81-0.31,1.62-0.65,2.41-1.01c0.2-0.09,0.39-0.19,0.58-0.28    c0.62-0.3,1.23-0.61,1.84-0.94c0.24-0.13,0.48-0.26,0.72-0.39c0.69-0.4,1.37-0.81,2.03-1.25c0.09-0.05,0.17-0.1,0.25-0.15    c0.6-0.4,1.2-0.82,1.78-1.25c2.37,3.04,3.65,6.76,3.65,10.68c0.01,4.65-1.8,9.02-5.09,12.31c-0.84,0.84-1.75,1.58-2.72,2.22    c-1.97,1.3-3.16,3.49-3.16,5.85c0,0.14,0.01,0.28,0.01,0.43v0.04c-0.1,2.13,0.79,4.19,2.4,5.6c1.67,1.44,3.91,2.02,6.07,1.55    c1.23-0.26,2.48-0.4,3.72-0.4c9.6,0,17.41,7.82,17.42,17.42C450.83,291.54,443.01,299.35,433.45,299.36z"/>

</g>

</g>

</svg>